<svg version="1.1" id="Layer_1" xmlns="http://www.w3.org/2000/svg" xmlns:xlink="http://www.w3.org/1999/xlink" x="0px" y="0px"
	 width="100%" viewBox="0 0 1024 1008" enable-background="new 0 0 1024 1008" xml:space="preserve">
<path fill="#000000" opacity="1.000000" stroke="none" 
	d="
M368.288086,538.418335 
	C348.054749,550.831238 322.589966,546.278564 309.984039,528.251709 
	C296.418701,508.852966 299.894318,480.441284 318.043701,466.450043 
	C331.291168,456.237640 346.247864,454.910645 361.505157,461.175781 
	C376.566803,467.360626 384.477783,479.384766 386.318909,495.346344 
	C388.336121,512.834167 383.296936,527.564697 368.288086,538.418335 
M320.945435,472.442932 
	C313.372620,479.025940 309.583221,487.603394 308.663940,497.342194 
	C306.319855,522.174316 324.354584,543.911865 352.787933,538.024780 
	C370.475922,534.362671 380.647919,519.420837 379.964478,499.677185 
	C379.462646,485.179230 373.465942,473.708557 360.040314,467.603088 
	C346.628540,461.503967 333.464874,462.733124 320.945435,472.442932 
z"/>
<path fill="#000000" opacity="1.000000" stroke="none" 
	d="
M448.873352,479.796265 
	C464.542664,486.221252 470.932648,500.070129 469.711548,513.774780 
	C468.187805,530.876343 458.917999,541.588684 443.356537,544.684631 
	C429.356354,547.470032 417.862396,542.624756 408.181122,530.275452 
	C408.181122,538.576294 408.182343,545.629578 408.180725,552.682861 
	C408.179718,557.013062 408.212891,561.343811 408.154755,565.673279 
	C408.125702,567.836487 408.283600,570.193909 405.018250,570.247437 
	C401.811188,570.299988 401.730103,568.104919 401.718903,565.841064 
	C401.696655,561.344360 401.696472,556.847534 401.695923,552.350769 
	C401.693207,530.033325 401.693085,507.715912 401.693207,485.398468 
	C401.693207,484.399261 401.668488,483.398193 401.719604,482.401306 
	C401.786957,481.087677 401.659790,479.437195 403.408752,479.250641 
	C405.449768,479.032898 405.734589,480.868103 405.973450,482.295746 
	C406.540680,485.685394 406.224792,489.228180 407.909637,492.896851 
	C418.479523,479.020172 431.969360,474.494507 448.873352,479.796265 
M408.255157,512.401367 
	C408.742065,527.850647 420.034515,539.303711 435.135284,539.663818 
	C450.648224,540.033752 463.276764,527.906006 463.649353,512.280579 
	C464.031769,496.242767 451.990784,483.545868 436.229950,483.367554 
	C420.242950,483.186676 408.536041,494.958649 408.255157,512.401367 
z"/>
<path fill="#000000" opacity="1.000000" stroke="none" 
	d="
M642.413391,533.324524 
	C627.335144,551.428467 595.383911,549.424622 584.997070,526.092102 
	C579.268738,513.224243 580.550659,500.526337 589.583740,489.510559 
	C598.152283,479.061310 609.814270,475.854797 622.842651,478.361938 
	C636.292603,480.950165 645.184448,488.979950 648.698669,502.375732 
	C651.617798,513.503235 649.491516,523.776184 642.413391,533.324524 
M632.594055,534.147217 
	C642.283630,526.357422 645.442932,516.250854 642.700317,504.346375 
	C640.178772,493.401764 633.089844,486.723602 622.199341,484.257172 
	C610.950012,481.709534 601.422729,484.938385 594.056396,493.769653 
	C585.731873,503.749725 586.234436,520.285889 594.882263,530.210388 
	C604.108093,540.798096 619.059082,542.553223 632.594055,534.147217 
z"/>
<path fill="#000000" opacity="1.000000" stroke="none" 
	d="
M670.336548,523.001343 
	C670.330078,528.995239 670.318604,534.489563 670.318970,539.983948 
	C670.319092,542.146851 670.039368,544.056946 667.197937,544.047424 
	C664.388977,544.038025 664.002930,542.096130 663.999756,539.969360 
	C663.971375,520.988892 663.958496,502.008362 663.992981,483.027985 
	C663.995850,481.435059 663.818481,479.319824 666.097961,479.122925 
	C668.571777,478.909241 668.297241,481.196533 668.559753,482.700134 
	C669.064819,485.593384 669.366150,488.522217 669.862305,492.269318 
	C674.602722,485.853790 679.641418,480.919037 686.778870,478.819427 
	C705.965210,473.175476 723.299072,486.351227 724.127563,507.542603 
	C724.543579,518.182129 724.209167,528.851196 724.200500,539.506897 
	C724.198669,541.759216 724.137329,544.032227 720.978638,544.033386 
	C717.851929,544.034485 717.723206,541.824707 717.723328,539.535522 
	C717.723877,529.212708 717.783081,518.889404 717.705139,508.567230 
	C717.595947,494.105133 707.574280,483.466919 694.131165,483.415833 
	C680.978455,483.365845 670.803284,493.846405 670.369812,508.017059 
	C670.222229,512.841125 670.339844,517.673279 670.336548,523.001343 
z"/>
<path fill="#000000" opacity="1.000000" stroke="none" 
	d="
M517.223877,539.232544 
	C530.223267,536.292480 537.441467,527.163086 537.619629,513.538696 
	C537.750244,503.551331 537.628479,493.560852 537.673462,483.572021 
	C537.682861,481.479675 537.242920,478.938751 540.590271,478.878510 
	C544.119263,478.814941 543.396912,481.483582 543.405090,483.505371 
	C543.481384,502.310211 543.492432,521.115295 543.566895,539.920166 
	C543.575500,542.092773 543.542114,544.046570 540.619751,544.009216 
	C538.115479,543.977234 537.676025,542.302002 537.677612,540.282288 
	C537.679688,537.687683 537.678162,535.093140 537.678162,531.209290 
	C531.441711,539.484802 524.580688,544.509521 515.415466,545.228210 
	C497.836731,546.606812 484.872223,535.352295 483.907532,517.352417 
	C483.293579,505.897461 483.765564,494.384583 483.737152,482.897675 
	C483.731689,480.689423 484.129120,478.873108 486.921722,478.881348 
	C489.679077,478.889496 490.176117,480.709869 490.182190,482.899658 
	C490.212677,493.887329 490.091675,504.877380 490.277893,515.862244 
	C490.536438,531.114502 501.613129,540.810364 517.223877,539.232544 
z"/>
<path fill="#000000" opacity="1.000000" stroke="none" 
	d="
M561.589355,460.109283 
	C561.799744,456.514954 561.072876,453.340454 562.098755,450.200409 
	C565.746277,449.040680 567.383606,450.052917 567.373596,454.035950 
	C567.301880,482.496582 567.341431,510.957458 567.328918,539.418274 
	C567.327942,541.575317 567.600464,544.130920 564.268860,543.916504 
	C560.978210,543.704773 561.614380,541.022705 561.611633,538.983704 
	C561.576111,512.853027 561.588684,486.722321 561.589355,460.109283 
z"/>
</svg>